<?xml version="1.0" encoding="utf-8"?>
<!-- Generator: Adobe Illustrator 16.0.0, SVG Export Plug-In . SVG Version: 6.00 Build 0)  -->
<!DOCTYPE svg PUBLIC "-//W3C//DTD SVG 1.1//EN" "http://www.w3.org/Graphics/SVG/1.1/DTD/svg11.dtd">
<svg version="1.1" xmlns="http://www.w3.org/2000/svg" xmlns:xlink="http://www.w3.org/1999/xlink" x="0px" y="0px" width="13px"
	 height="12px" viewBox="0 0 13 12" enable-background="new 0 0 13 12" xml:space="preserve">
<g id="Ellipse_6_copy_3_1_" display="none" enable-background="new    ">
	<g id="Ellipse_6_copy_3" display="inline">
		<g>
			<path fill-rule="evenodd" clip-rule="evenodd" fill="#2B2936" d="M6.004,0.008c-3.317,0-6.007,2.683-6.007,5.991
				s2.69,5.991,6.007,5.991c3.318,0,6.008-2.683,6.008-5.991S9.322,0.008,6.004,0.008z M6.004,9.993L3,7h2.003L5,2h2l0.005,5H9
				L6.004,9.993z"/>
		</g>
	</g>
</g>
<g id="Ellipse_6_copy_4_1_" display="none" enable-background="new    ">
	<g id="Ellipse_6_copy_4" display="inline">
		<g>
			<path fill-rule="evenodd" clip-rule="evenodd" fill="#2B2936" d="M6.004,0.01c-3.317,0-6.007,2.683-6.007,5.991
				s2.69,5.991,6.007,5.991c3.318,0,6.008-2.683,6.008-5.991S9.322,0.01,6.004,0.01z M7,10H5l0.003-5H3l3.004-2.993L9,5H7.005L7,10z
				"/>
		</g>
	</g>
</g>
<g id="Shape_1_copy_2_1_" display="none" enable-background="new    ">
	<g id="Shape_1_copy_2" display="inline">
		<g>
			<polygon fill="#2B2936" points="0,1 5,6 5,12 8,10 8,6 13,1 			"/>
		</g>
	</g>
</g>
<g id="Ellipse_6_copy_6_1_" enable-background="new    ">
	<g id="Ellipse_6_copy_6">
		<g>
			<path fill-rule="evenodd" clip-rule="evenodd" fill="#2B2936" d="M6.008,11.988l5.005-4.979H1.002L6.008,11.988z M6.008,0.011
				L1.002,5.004h10.012L6.008,0.011z"/>
		</g>
	</g>
</g>
</svg>
