<?xml version="1.0" encoding="iso-8859-1"?>
<!-- Generator: Adobe Illustrator 16.0.0, SVG Export Plug-In . SVG Version: 6.00 Build 0)  -->
<!DOCTYPE svg PUBLIC "-//W3C//DTD SVG 1.1//EN" "http://www.w3.org/Graphics/SVG/1.1/DTD/svg11.dtd">
<svg version="1.1" xmlns="http://www.w3.org/2000/svg" xmlns:xlink="http://www.w3.org/1999/xlink" x="0px" y="0px" width="28.8px"
	 height="28.8px" viewBox="0 0 28.8 28.8" enable-background="new 0 0 28.8 28.8" xml:space="preserve">
<g id="_x3C_Background_x3E__xA0_0_xA0_Image_1_" display="none">
	
		<image display="inline" overflow="visible" width="60" height="60" id="_x3C_Background_x3E__xA0_0_xA0_Image" xlink:href="50CB8369.jpg"  transform="matrix(0.48 0 0 0.48 0 0)">
	</image>
</g>
<g id="Rounded_Rectangle_1_copy_1_" enable-background="new    ">
	<g id="Rounded_Rectangle_1_copy">
		<g>
			<path fill-rule="evenodd" clip-rule="evenodd" fill="#75D800" d="M23.577,7.612c-0.56-0.564-1.466-0.564-2.025,0l-9.45,9.536
				l-4.388-4.427c-0.559-0.564-1.466-0.564-2.025,0c-0.559,0.564-0.559,1.479,0,2.043l5.4,5.448c0.559,0.564,1.466,0.564,2.025,0
				L23.577,9.656C24.136,9.091,24.136,8.177,23.577,7.612z M14.4,0C6.447,0,0,6.447,0,14.4c0,7.953,6.447,14.4,14.4,14.4
				c7.953,0,14.4-6.447,14.4-14.4C28.8,6.447,22.353,0,14.4,0z M14.4,27.36c-7.158,0-12.96-5.802-12.96-12.96
				c0-7.158,5.802-12.96,12.96-12.96c7.157,0,12.96,5.802,12.96,12.96C27.36,21.558,21.557,27.36,14.4,27.36z"/>
		</g>
	</g>
</g>
</svg>
