<?xml version="1.0" encoding="utf-8"?>
<!-- Generator: Adobe Illustrator 16.0.0, SVG Export Plug-In . SVG Version: 6.00 Build 0)  -->
<!DOCTYPE svg PUBLIC "-//W3C//DTD SVG 1.1//EN" "http://www.w3.org/Graphics/SVG/1.1/DTD/svg11.dtd">
<svg version="1.1" xmlns="http://www.w3.org/2000/svg" xmlns:xlink="http://www.w3.org/1999/xlink" x="0px" y="0px" width="52px"
	 height="52px" viewBox="0 0 52 52" enable-background="new 0 0 52 52" xml:space="preserve">
<g id="Rectangle_1_copy_1_" display="none" enable-background="new    ">
	<g id="Rectangle_1_copy" display="inline">
		<g>
			<path fill-rule="evenodd" clip-rule="evenodd" fill="#00286D" d="M9,15h6V9H9V15z M0,52h24V28H0V52z M5,33h14v14H5V33z M9,43h6
				v-6H9V43z M48,34h-6v-6H28v24h12v-6h-6v-6v-6h6v6h6h6V28h-4V34z M28,0v24h24V0H28z M47,19H33V5h14V19z M46,52h6v-6h-6V52z M0,24
				h24V0H0V24z M5,5h14v14H5V5z M43,9h-6v6h6V9z"/>
		</g>
	</g>
</g>
<g id="Rectangle_1_copy_2_1_" display="none" enable-background="new    ">
	<g id="Rectangle_1_copy_2" display="inline">
		<g>
			<path fill-rule="evenodd" clip-rule="evenodd" fill="#9098A9" d="M9,15h6V9H9V15z M9,43h6v-6H9V43z M0,52h24V28H0V52z M5,33h14
				v14H5V33z M28,0v24h24V0H28z M47,19H33V5h14V19z M48,34h-6v-6H28v24h12v-6h-6v-6v-6h6v6h6h6V28h-4V34z M0,24h24V0H0V24z M5,5h14
				v14H5V5z M46,52h6v-6h-6V52z M43,9h-6v6h6V9z"/>
		</g>
	</g>
</g>
<g id="Rounded_Rectangle_1_copy_1_" display="none" enable-background="new    ">
	<g id="Rounded_Rectangle_1_copy" display="inline">
		<g>
			<path fill-rule="evenodd" clip-rule="evenodd" fill="#00286D" d="M39.283,14.715c-3.711-3.711-12.219-1.222-19.001,5.562
				c-6.783,6.783-9.273,15.291-5.562,19.003h0c0,0,0.182,0.182,0.347,0.348c0.704,0.704,1.845,0.704,2.549,0l4.171-4.172
				c0.704-0.703,0.704-1.845,0-2.549c-0.108-0.108-0.237-0.237-0.348-0.348l0.006-0.006c-1.237-1.313-2.218-2.88-0.006-5.092
				l6.025-6.025c2.138-2.137,3.764-1.214,5.089,0.008l0.009-0.008c0.102,0.102,0.223,0.222,0.348,0.348
				c0.705,0.704,1.846,0.704,2.55,0l4.171-4.171c0.704-0.704,0.704-1.846,0-2.55C39.424,14.855,39.283,14.715,39.283,14.715z M26,0
				C11.641,0,0,11.641,0,26s11.641,26,26,26s26-11.641,26-26S40.359,0,26,0z M26,49.14C13.22,49.14,2.86,38.78,2.86,26
				S13.22,2.86,26,2.86C38.779,2.86,49.141,13.22,49.141,26S38.779,49.14,26,49.14z"/>
		</g>
	</g>
</g>
<g id="Rounded_Rectangle_1_copy_2_1_" enable-background="new    ">
	<g id="Rounded_Rectangle_1_copy_2">
		<g>
			<path fill-rule="evenodd" clip-rule="evenodd" fill="#9098A9" d="M39.283,14.715c-3.711-3.711-12.219-1.222-19.001,5.562
				c-6.783,6.783-9.273,15.291-5.562,19.003h0c0,0,0.182,0.182,0.347,0.348c0.704,0.704,1.845,0.704,2.549,0l4.171-4.172
				c0.704-0.703,0.704-1.845,0-2.549l-0.348-0.348l0.006-0.006c-1.237-1.313-2.218-2.88-0.006-5.092l6.025-6.025
				c2.138-2.137,3.764-1.214,5.089,0.008l0.009-0.008c0.102,0.102,0.223,0.222,0.348,0.348c0.705,0.704,1.846,0.704,2.55,0
				l4.171-4.171c0.704-0.704,0.704-1.846,0-2.55C39.424,14.855,39.283,14.715,39.283,14.715z M26,0C11.641,0,0,11.641,0,26
				s11.641,26,26,26s26-11.641,26-26S40.359,0,26,0z M26,49.14C13.22,49.14,2.86,38.78,2.86,26S13.22,2.86,26,2.86
				C38.779,2.86,49.141,13.22,49.141,26S38.779,49.14,26,49.14z"/>
		</g>
	</g>
</g>
</svg>
